<?xml version="1.0" encoding="utf-8"?>
<!-- Generator: Adobe Illustrator 21.1.0, SVG Export Plug-In . SVG Version: 6.00 Build 0)  -->
<svg version="1.1" baseProfile="basic" id="Camada_1"
	 xmlns="http://www.w3.org/2000/svg" xmlns:xlink="http://www.w3.org/1999/xlink" x="0px" y="0px" viewBox="0 0 800 264.1"
	 xml:space="preserve">
<style type="text/css">
	.st0{fill:#FFE81F;}
</style>
<g>
	<path class="st0" d="M67.5,78.4h25.6v24.4H56.8c-8.9,0-16.9-1.6-24.1-4.7c-7.2-3.2-12.8-7.9-17-14.2c-4.1-6.3-6.2-14-6.2-23.2
		c0-6.4,1.2-12.1,3.7-17.2c2.5-5,5.9-9.2,10.3-12.6c4.4-3.3,9.4-5.8,15.1-7.5c5.7-1.6,11.7-2.5,18.2-2.5h22.4h13.8v24.4H67.5
		c-5.7,0-10,0.2-12.7,0.5c-2.8,0.3-5.2,0.9-7.4,1.7s-4.1,2.2-5.7,4.1c-1.7,2-2.6,5.4-2.9,10.4c0.2,4.8,1.2,8.3,2.9,10.4
		c1.7,2.1,3.9,3.5,6.3,4.1s5.1,1.2,7.7,1.4C58.4,78.3,62.3,78.4,67.5,78.4z"/>
	<path class="st0" d="M143.4,49.2V21H170v81.8h-26.6V73.3H122v29.5H95.4V21H122v28.2H143.4z"/>
	<path class="st0" d="M266.8,62.3c0,8.9-1.9,16.6-5.6,22.9c-3.7,6.3-9.1,11-16.2,14.2s-15.5,4.8-25.3,4.8c-9.8,0-18.2-1.6-25.3-4.8
		c-7-3.2-12.4-7.9-16-14.2c-3.6-6.2-5.4-13.9-5.4-22.9c0-6.8,1-12.8,3.1-18c2.1-5.2,5.1-9.6,9.1-13.1c4-3.5,8.9-6.2,14.7-8.1
		c5.8-1.8,12.4-2.7,19.8-2.7c9.8,0,18.2,1.6,25.3,4.8c7.1,3.2,12.5,8,16.3,14.3S266.8,53.4,266.8,62.3z M201.9,62.6
		c0,5.2,1.2,9.8,3.5,13.7c2.4,3.9,7,5.8,14,5.8c5.4,0,9.4-1,12-3.1s4.3-4.4,5-7c0.7-2.6,1.1-5.8,1.3-9.5c-0.2-5.2-1.5-9.8-3.8-13.7
		c-2.3-3.9-7.2-5.9-14.6-5.9C207.7,43,201.9,49.5,201.9,62.6z"/>
	<path class="st0" d="M361.7,62.3c0,8.9-1.9,16.6-5.6,22.9c-3.7,6.3-9.1,11-16.2,14.2s-15.5,4.8-25.3,4.8c-9.8,0-18.2-1.6-25.3-4.8
		c-7-3.2-12.4-7.9-16-14.2c-3.6-6.2-5.4-13.9-5.4-22.9c0-6.8,1-12.8,3.1-18c2.1-5.2,5.1-9.6,9.1-13.1c4-3.5,8.9-6.2,14.7-8.1
		c5.8-1.8,12.4-2.7,19.8-2.7c9.8,0,18.2,1.6,25.3,4.8c7.1,3.2,12.5,8,16.3,14.3S361.7,53.4,361.7,62.3z M296.9,62.6
		c0,5.2,1.2,9.8,3.5,13.7c2.4,3.9,7,5.8,14,5.8c5.4,0,9.4-1,12-3.1s4.3-4.4,5-7c0.7-2.6,1.1-5.8,1.3-9.5c-0.2-5.2-1.5-9.8-3.8-13.7
		c-2.3-3.9-7.2-5.9-14.6-5.9C302.7,43,296.9,49.5,296.9,62.6z"/>
	<path class="st0" d="M430,45.3h-19.9c-9.7-0.3-11.1,2.4-4.3,8c12.2,10.7,18.2,21.1,18,31.3c-0.2,10.1-6.2,16.2-18,18.1h-43.5V78.4
		h17.2c10.7,0.3,12-2.7,4.1-8.9c-13.1-12.1-18.7-23.2-16.8-33.3c2-10.1,8.2-15.2,18.6-15.2H430V45.3z"/>
	<path class="st0" d="M429.9,102.8V21h70.1v24.4h-43.5v9.4h28.1V69h-28.1v9.4H507v24.4H429.9z"/>
	<path class="st0" d="M635.3,21v24.4h-25.9v57.4h-26.6V45.3h-25.9V21H635.3z"/>
	<path class="st0" d="M685,49.2V21h26.6v81.8H685V73.3h-21.4v29.5H637V21h26.6v28.2H685z"/>
	<path class="st0" d="M717.3,102.8V21h70.1v24.4H744v9.4H772V69H744v9.4h50.4v24.4H717.3z"/>
	<path class="st0" d="M99.5,253.8V147.3h91.3V179h-56.6v12.2h36.6v18.6h-36.6v43.9H99.5z"/>
	<path class="st0" d="M316,201.1c0,11.7-2.4,21.6-7.3,29.8c-4.9,8.2-11.9,14.4-21.1,18.5s-20.2,6.2-33,6.2
		c-12.8,0-23.8-2.1-32.9-6.2c-9.2-4.2-16.1-10.3-20.8-18.4c-4.7-8.1-7.1-18.1-7.1-29.8c0-8.9,1.4-16.7,4.1-23.5
		c2.7-6.8,6.7-12.4,11.9-17.1c5.2-4.6,11.6-8.1,19.2-10.5c7.6-2.4,16.1-3.6,25.7-3.6c12.7,0,23.7,2.1,33,6.3
		c9.2,4.2,16.3,10.4,21.2,18.6C313.5,179.6,316,189.5,316,201.1z M231.6,201.4c0,6.8,1.5,12.8,4.6,17.8c3.1,5.1,9.1,7.6,18.2,7.6
		c7,0,12.2-1.3,15.7-4c3.5-2.7,5.6-5.7,6.5-9.1c0.9-3.4,1.4-7.5,1.7-12.4c-0.3-6.8-1.9-12.8-4.9-17.9c-3-5.1-9.3-7.6-19-7.6
		C239.1,175.9,231.6,184.4,231.6,201.4z"/>
	<path class="st0" d="M321.1,253.8V147.3h69.3c8.6,0.8,15.6,3,21.1,6.8c5.5,3.7,9.5,8.8,12.1,15c2,9.4,2.1,16.7,0.3,21.8
		c-1.8,5.1-4.9,9.4-9.3,12.8c-4.4,3.4-10.8,6.1-19,8.1l8,10.2h31.9v31.7h-42l-33.8-35.2v35.2H321.1z M359.6,173.9v19.6h26.8
		c1.4,0,3-0.5,4.6-1.6c1.7-1.1,2.6-3.7,2.7-8c-0.2-4.1-1.2-6.8-3-8.1c-1.7-1.3-3.2-2-4.4-2H359.6z"/>
	<path class="st0" d="M507,222.1h33.3v31.7h-47.2c-11.6,0-22-2.1-31.3-6.2c-9.3-4.1-16.7-10.3-22.1-18.5c-5.4-8.2-8.1-18.3-8.1-30.2
		c0-8.4,1.6-15.8,4.8-22.4c3.2-6.6,7.7-12,13.4-16.4c5.7-4.3,12.3-7.6,19.7-9.7c7.4-2.1,15.3-3.2,23.6-3.2h29.2h18V179H507
		c-7.5,0-13,0.2-16.6,0.7c-3.6,0.4-6.8,1.2-9.6,2.2s-5.3,2.8-7.4,5.4c-2.2,2.6-3.4,7.1-3.8,13.6c0.2,6.3,1.5,10.8,3.8,13.5
		c2.3,2.7,5,4.5,8.3,5.4s6.6,1.5,10,1.8C495.1,221.9,500.2,222.1,507,222.1z"/>
	<path class="st0" d="M544.8,253.8V147.3h91.3V179h-56.6v12.2H616v18.6h-36.6v12.2h65.6v31.7H544.8z"/>
	<path class="st0" d="M652.6,147.3h40.5l-5.9,67h-28.7L652.6,147.3z M656.3,225.4h32.9v28.4h-32.9V225.4z"/>
</g>
<g>
</g>
<g>
</g>
<g>
</g>
<g>
</g>
<g>
</g>
<g>
</g>
</svg>
