<?xml version="1.0" encoding="utf-8"?>
<!-- Generator: Adobe Illustrator 21.1.0, SVG Export Plug-In . SVG Version: 6.00 Build 0)  -->
<svg version="1.1" baseProfile="basic" id="Camada_1"
	 xmlns="http://www.w3.org/2000/svg" xmlns:xlink="http://www.w3.org/1999/xlink" x="0px" y="0px" viewBox="0 0 800 264.1"
	 xml:space="preserve">
<style type="text/css">
	.st0{fill:#FFE81F;}
</style>
<g>
	<path class="st0" d="M97.1,78.4v24.4H60.8c-8.9,0-16.9-1.6-24.1-4.7c-7.2-3.2-12.8-7.9-17-14.2c-4.1-6.3-6.2-14-6.2-23.2
		c0-6.4,1.2-12.1,3.7-17.2c2.5-5,5.9-9.2,10.3-12.6c4.4-3.3,9.4-5.8,15.1-7.5c5.7-1.6,11.7-2.5,18.2-2.5h36.3v24.4H71.5
		c-5.7,0-10,0.2-12.7,0.5c-2.8,0.3-5.2,0.9-7.4,1.7s-4.1,2.2-5.7,4.1c-1.7,2-2.6,5.4-2.9,10.4c0.2,4.8,1.2,8.3,2.9,10.4
		c1.7,2.1,3.9,3.5,6.3,4.1s5.1,1.2,7.7,1.4c2.6,0.3,6.6,0.4,11.8,0.4H97.1z M93.7,24.4H60.8c-6.2,0.1-11.9,0.8-17,2.2
		c-5.1,1.4-9.7,3.6-13.7,6.7c-4,3.1-7.1,6.9-9.5,11.4c-2.3,4.5-3.6,9.8-3.7,15.9c-0.1,8.6,1.8,15.7,5.8,21.5
		c3.9,5.7,9.2,10,15.9,12.8c6.6,2.8,14,4.3,22.2,4.4h32.9V81.8H71.5c-5.1,0.1-9.2-0.1-12.2-0.4c-3-0.3-6-0.9-8.9-1.7
		s-5.4-2.5-7.4-5.3c-2-2.7-3.2-6.8-3.5-12.3c0.4-6.3,1.7-10.6,3.9-12.7s4.5-3.7,6.9-4.7c2.5-1,5.2-1.7,8.2-2c3-0.4,7.4-0.6,13.2-0.7
		h22.2V24.4z"/>
	<path class="st0" d="M148.5,49.2V21h26.6v81.8h-26.6V73.3h-21.4v29.5h-26.6V21h26.6v28.2H148.5z M103.9,24.4v75h19.8V69.9h28.2
		v29.5h19.8v-75h-19.8v28.2h-28.2V24.4H103.9z"/>
	<path class="st0" d="M269.6,62.3c0,8.9-1.9,16.6-5.6,22.9c-3.7,6.3-9.1,11-16.2,14.2s-15.5,4.8-25.3,4.8c-9.8,0-18.2-1.6-25.3-4.8
		c-7-3.2-12.4-7.9-16-14.2c-3.6-6.2-5.4-13.9-5.4-22.9c0-6.8,1-12.8,3.1-18c2.1-5.2,5.1-9.6,9.1-13.1c4-3.5,8.9-6.2,14.7-8.1
		c5.8-1.8,12.4-2.7,19.8-2.7c9.8,0,18.2,1.6,25.3,4.8c7.1,3.2,12.5,8,16.3,14.3S269.6,53.4,269.6,62.3z M266.2,62.3
		c-0.2-8.2-2-15.2-5.4-21s-8.5-10.2-15-13.1c-6.6-3-14.3-4.5-23.4-4.5c-6.8,0-12.9,0.8-18.2,2.5c-5.4,1.7-9.9,4.2-13.6,7.4
		c-3.7,3.2-6.5,7.3-8.4,12c-1.9,4.8-2.9,10.3-3.1,16.6c0.2,8.3,1.9,15.3,5.2,21.1c3.3,5.7,8.3,10.1,14.8,13
		c6.5,2.9,14.3,4.4,23.3,4.4s16.9-1.5,23.4-4.4c6.5-2.9,11.5-7.3,15-13.1C264.2,77.5,266,70.5,266.2,62.3z M202.6,62.5
		c0-14.3,6.4-21.5,19.3-21.5c8.2,0,13.5,2.1,16,6.4c2.5,4.3,3.9,9.3,4.2,15.1c-0.3,4-0.8,7.5-1.5,10.4c-0.7,2.9-2.5,5.5-5.5,7.7
		c-2.9,2.2-7.4,3.4-13.3,3.4c-7.6,0-12.7-2.1-15.3-6.4C203.9,73.2,202.6,68.2,202.6,62.5z M206.3,62.6c0,4.8,1.1,9,3.2,12.5
		c2.1,3.6,6.3,5.4,12.6,5.4c4.8,0,8.5-0.9,10.9-2.8c2.4-1.9,3.9-4,4.5-6.4c0.6-2.4,1-5.3,1.2-8.7c-0.2-4.8-1.3-9-3.4-12.5
		c-2.1-3.5-6.5-5.3-13.2-5.3C211.6,44.8,206.3,50.7,206.3,62.6z"/>
	<path class="st0" d="M364.6,62.3c0,8.9-1.9,16.6-5.6,22.9c-3.7,6.3-9.1,11-16.2,14.2s-15.5,4.8-25.3,4.8c-9.8,0-18.2-1.6-25.3-4.8
		c-7-3.2-12.4-7.9-16-14.2c-3.6-6.2-5.4-13.9-5.4-22.9c0-6.8,1-12.8,3.1-18c2.1-5.2,5.1-9.6,9.1-13.1c4-3.5,8.9-6.2,14.7-8.1
		c5.8-1.8,12.4-2.7,19.8-2.7c9.8,0,18.2,1.6,25.3,4.8c7.1,3.2,12.5,8,16.3,14.3S364.6,53.4,364.6,62.3z M361.2,62.3
		c-0.2-8.2-2-15.2-5.4-21s-8.5-10.2-15-13.1c-6.6-3-14.3-4.5-23.4-4.5c-6.8,0-12.9,0.8-18.2,2.5c-5.4,1.7-9.9,4.2-13.6,7.4
		c-3.7,3.2-6.5,7.3-8.4,12c-1.9,4.8-2.9,10.3-3.1,16.6c0.2,8.3,1.9,15.3,5.2,21.1c3.3,5.7,8.3,10.1,14.8,13
		c6.5,2.9,14.3,4.4,23.3,4.4s16.9-1.5,23.4-4.4c6.5-2.9,11.5-7.3,15-13.1C359.2,77.5,361,70.5,361.2,62.3z M297.6,62.5
		c0-14.3,6.4-21.5,19.3-21.5c8.2,0,13.5,2.1,16,6.4c2.5,4.3,3.9,9.3,4.2,15.1c-0.3,4-0.8,7.5-1.5,10.4c-0.7,2.9-2.5,5.5-5.5,7.7
		c-2.9,2.2-7.4,3.4-13.3,3.4c-7.6,0-12.7-2.1-15.3-6.4C298.9,73.2,297.6,68.2,297.6,62.5z M301.3,62.6c0,4.8,1.1,9,3.2,12.5
		c2.1,3.6,6.3,5.4,12.6,5.4c4.8,0,8.5-0.9,10.9-2.8c2.4-1.9,3.9-4,4.5-6.4c0.6-2.4,1-5.3,1.2-8.7c-0.2-4.8-1.3-9-3.4-12.5
		c-2.1-3.5-6.5-5.3-13.2-5.3C306.6,44.8,301.3,50.7,301.3,62.6z"/>
	<path class="st0" d="M429.4,21v24.4h-16.5c-9.7-0.3-11.1,2.4-4.3,8c12.2,10.7,18.2,21.1,18,31.3c-0.2,10.1-6.2,16.2-18,18.1h-43.5
		V78.4h17.2c10.7,0.3,12-2.7,4.1-8.9c-13.1-12.1-18.7-23.2-16.8-33.3c2-10.1,8.2-15.2,18.6-15.2H429.4z M368.5,81.8v17.6h40.1
		c10-2.1,14.8-7.6,14.5-16.3c-0.3-8.8-6.9-18.7-19.9-29.7c-6-7.9-2.8-11.7,9.7-11.4H426V24.4h-37.8c-7.9,0.2-12.8,4.3-14.8,12.6
		c-2,8.2,3.4,18.3,16.2,30.2c9.5,9.4,7.1,14.2-7.3,14.6H368.5z"/>
	<path class="st0" d="M432.8,102.8V21h70.1v24.4h-43.5v9.4h28.1V69h-28.1v9.4h47v24.4H432.8z M436.2,24.4v75H503V81.8h-47V65.7h28.1
		v-7.6H456V42h43.5V24.4H436.2z"/>
	<path class="st0" d="M631.9,21v24.4h-22.5v57.4h-26.6V45.3h-22.5V21H631.9z M563.6,24.4V42h22.5v57.4H606V42h22.5V24.4H563.6z"/>
	<path class="st0" d="M683.3,49.2V21H710v81.8h-26.6V73.3h-21.4v29.5h-26.6V21h26.6v28.2H683.3z M638.7,24.4v75h19.8V69.9h28.2v29.5
		h19.8v-75h-19.8v28.2h-28.2V24.4H638.7z"/>
	<path class="st0" d="M713.4,102.8V21h70.1v24.4H740v9.4h28.1V69H740v9.4h47v24.4H713.4z M716.8,24.4v75h66.8V81.8h-47V65.7h28.1
		v-7.6h-28.1V42h43.5V24.4H716.8z"/>
	<path class="st0" d="M100.6,253.8V147.3h91.3V179h-56.6v12.2h36.6v18.6h-36.6v43.9H100.6z M105,151.7v97.6h25.8v-43.8h36.6v-9.9
		h-36.6v-21.1h56.6v-22.9H105z"/>
	<path class="st0" d="M314.9,201.1c0,11.7-2.4,21.6-7.3,29.8c-4.9,8.2-11.9,14.4-21.1,18.5s-20.2,6.2-33,6.2
		c-12.8,0-23.8-2.1-32.9-6.2c-9.2-4.2-16.1-10.3-20.8-18.4c-4.7-8.1-7.1-18.1-7.1-29.8c0-8.9,1.4-16.7,4.1-23.5
		c2.7-6.8,6.7-12.4,11.9-17.1c5.2-4.6,11.6-8.1,19.2-10.5c7.6-2.4,16.1-3.6,25.7-3.6c12.7,0,23.7,2.1,33,6.3
		c9.2,4.2,16.3,10.4,21.2,18.6C312.4,179.6,314.9,189.5,314.9,201.1z M310.4,201.1c-0.2-10.7-2.5-19.8-7-27.4
		c-4.5-7.5-11-13.2-19.5-17.1c-8.5-3.9-18.7-5.8-30.4-5.8c-8.8,0-16.8,1.1-23.7,3.3c-7,2.2-12.9,5.4-17.7,9.7
		c-4.8,4.2-8.5,9.5-10.9,15.7c-2.5,6.2-3.8,13.4-4,21.6c0.2,10.8,2.5,20,6.8,27.4c4.4,7.5,10.8,13.1,19.2,17
		c8.5,3.8,18.6,5.8,30.4,5.8c11.8,0,21.9-1.9,30.5-5.7c8.5-3.8,15-9.5,19.5-17C307.9,220.9,310.3,211.8,310.4,201.1z M227.7,201.3
		c0-18.7,8.4-28,25.1-28c10.6,0,17.6,2.8,20.9,8.4c3.3,5.6,5.1,12.1,5.5,19.7c-0.4,5.3-1.1,9.8-2,13.5c-0.9,3.8-3.3,7.1-7.1,10
		c-3.8,2.9-9.6,4.4-17.3,4.4c-9.9,0-16.6-2.8-20-8.4C229.4,215.3,227.7,208.8,227.7,201.3z M232.5,201.5c0,6.2,1.4,11.7,4.1,16.3
		c2.8,4.6,8.2,7,16.4,7c6.3,0,11-1.2,14.2-3.7c3.1-2.5,5.1-5.2,5.9-8.3c0.8-3.1,1.3-6.9,1.5-11.3c-0.2-6.2-1.7-11.7-4.5-16.3
		c-2.7-4.6-8.4-6.9-17.1-6.9C239.4,178.3,232.5,186,232.5,201.5z"/>
	<path class="st0" d="M320,253.8V147.3h69.3c8.6,0.8,15.4,2.9,20.6,6.3c5.2,3.4,8.7,6.8,10.5,10c1.9,3.2,3.2,7.1,4,11.7
		c0.8,4.6,0.3,9.7-1.5,15.1c-1.8,5.5-4.9,9.9-9.4,13.3c-4.4,3.4-10.8,6.1-19,8.1l8,10.2h27.4v31.7h-37.6l-33.8-35.2v35.2H320z
		 M324.4,249.4H354v-35.2h7.2l33.6,35.2h30.6v-22.9h-25.6l-9.8-12v-6.2c10.1-2.1,17-4.6,20.8-7.7c3.7-3.1,6.3-6.9,7.9-11.4
		c1.5-4.5,2-8.7,1.5-12.8c-0.6-4.1-1.6-7.5-3.2-10.1c-1.5-2.7-4.7-5.6-9.3-8.7c-4.7-3.1-10.8-5.1-18.4-5.8h-64.9V249.4z M356.6,172
		h29.8c1.3,0,2.9,0.8,4.9,2.3s3,4.8,3.4,9.6c-0.2,5.1-1.2,8.2-3.1,9.5c-1.8,1.3-3.6,1.9-5.1,1.9h-29.9V172z M361.2,176.3v15H384
		c1.2,0,2.5-0.4,3.9-1.2c1.4-0.8,2.2-2.9,2.3-6.2c-0.2-3-1.1-5.1-2.6-6.1c-1.5-1-2.7-1.5-3.7-1.5H361.2z"/>
	<path class="st0" d="M539.2,222.1v31.7h-47.2c-11.6,0-22-2.1-31.3-6.2c-9.3-4.1-16.7-10.3-22.1-18.5s-8.1-18.3-8.1-30.2
		c0-8.4,1.6-15.8,4.8-22.4c3.2-6.6,7.7-12,13.4-16.4c5.7-4.3,12.3-7.6,19.7-9.7c7.4-2.1,15.3-3.2,23.6-3.2h47.2V179h-33.3
		c-7.5,0-13,0.2-16.6,0.7s-6.8,1.2-9.6,2.2c-2.8,1-5.3,2.8-7.4,5.4c-2.2,2.6-3.4,7.1-3.8,13.6c0.2,6.3,1.5,10.8,3.8,13.5
		c2.3,2.7,5,4.5,8.3,5.4s6.6,1.5,10,1.8c3.4,0.3,8.6,0.5,15.3,0.5H539.2z M534.8,151.7h-42.8c-8.1,0.1-15.4,1.1-22.1,2.9
		c-6.7,1.8-12.6,4.7-17.8,8.8c-5.2,4-9.3,9-12.3,14.9c-3,5.9-4.7,12.8-4.9,20.7c-0.1,11.2,2.4,20.5,7.5,27.9
		c5.1,7.5,12,13,20.6,16.7c8.7,3.6,18.3,5.6,28.9,5.8h42.8v-22.9h-28.9c-6.7,0.1-12-0.1-15.9-0.5c-3.9-0.4-7.8-1.2-11.7-2.2
		s-7.1-3.3-9.7-6.9s-4.1-8.9-4.6-16.1c0.5-8.3,2.2-13.8,5-16.6c2.8-2.8,5.8-4.8,9-6.1c3.2-1.3,6.7-2.1,10.7-2.6
		c3.9-0.5,9.6-0.8,17.1-0.9h28.9V151.7z"/>
	<path class="st0" d="M543.7,253.8V147.3H635V179h-56.6v12.2h36.6v18.6h-36.6v12.2h61.2v31.7H543.7z M548.1,151.7v97.6h87v-22.9
		h-61.2v-20.9h36.6v-9.9h-36.6v-21.1h56.6v-22.9H548.1z"/>
	<path class="st0" d="M651.5,147.3H692l-5.9,67h-28.7L651.5,147.3z M655.2,225.4h32.9v28.4h-32.9V225.4z M656.3,151.7l5.4,58.2h20
		l5.2-58.2H656.3z M659.7,229.8v19.5h24v-19.5H659.7z"/>
</g>
<g>
</g>
<g>
</g>
<g>
</g>
<g>
</g>
<g>
</g>
<g>
</g>
</svg>
