<?xml version="1.0" encoding="utf-8"?>
<!-- Generator: Adobe Illustrator 16.0.0, SVG Export Plug-In . SVG Version: 6.00 Build 0)  -->
<!DOCTYPE svg PUBLIC "-//W3C//DTD SVG 1.1//EN" "http://www.w3.org/Graphics/SVG/1.1/DTD/svg11.dtd">
<svg version="1.1"
	 id="svg2" xmlns:dc="http://purl.org/dc/elements/1.1/" xmlns:cc="http://creativecommons.org/ns#" xmlns:rdf="http://www.w3.org/1999/02/22-rdf-syntax-ns#" xmlns:svg="http://www.w3.org/2000/svg"
	 xmlns="http://www.w3.org/2000/svg" xmlns:xlink="http://www.w3.org/1999/xlink" x="0px" y="0px" width="793.27px"
	 height="297.89px" viewBox="6.73 -13.94 793.27 297.89" enable-background="new 6.73 -13.94 793.27 297.89" xml:space="preserve">
<path fill="#FFFFFF" d="M263.03,95.33c-15.53,0-32.86,5.98-36.49,25.67c-0.39,2.09,1,3.09,2.33,3.39l15.91,1.91
	c1.47-0.07,2.47-1.68,2.76-3.18c1.36-6.78,6.94-9.97,13.15-9.97c3.36,0,7.13,1.15,9.12,4.24c2.28,3.44,2.12,8.12,2.12,12.09v2.33
	c-9.46,1.09-21.91,1.74-30.76,5.73c-10.22,4.54-17.4,13.78-17.4,27.37c0,17.41,10.66,26.1,24.4,26.1c11.6,0,18-2.72,26.94-12.09
	c2.97,4.41,3.92,6.42,9.34,11.03c1.21,0.649,2.74,0.59,3.82-0.421v0.211c3.26-2.971,9.18-8.381,12.52-11.24
	c1.33-1.109,1.04-2.939,0-4.46c-2.98-4.22-6.15-7.63-6.15-15.49v-26.1c0-11.05,0.94-21.24-7-28.85
	C281.38,97.44,270.95,95.33,263.03,95.33z M476.88,95.33c-15.53,0-32.85,5.98-36.489,25.67c-0.391,2.09,0.989,3.09,2.33,3.39
	l15.909,1.91c1.47-0.07,2.48-1.68,2.761-3.18c1.359-6.78,6.939-9.97,13.149-9.97c3.37,0,7.13,1.15,9.12,4.24
	c2.27,3.44,1.91,8.12,1.91,12.09v2.33c-9.46,1.09-21.7,1.74-30.551,5.73c-10.219,4.54-17.399,13.78-17.399,27.37
	c0,17.41,10.67,26.1,24.399,26.1c11.58,0,17.99-2.72,26.94-12.09c2.95,4.41,3.92,6.42,9.341,11.03
	c1.219,0.649,2.739,0.59,3.819-0.421v0.211c3.271-2.971,9.181-8.381,12.521-11.24c1.33-1.109,1.029-2.939,0-4.46
	c-2.98-4.22-6.15-7.63-6.15-15.49v-26.1c0-11.05,0.72-21.24-7.21-28.85C495.02,97.44,484.811,95.33,476.88,95.33z M356.59,96.17
	c-10.03,0-17.48,5.06-21.43,15.91h-0.21v-11.24c-0.1-1.57-1.38-2.89-2.97-2.97H316.7c-1.73,0-3.18,1.46-3.18,3.18v85.931
	c0.13,1.529,1.42,2.859,2.97,2.97h16.34c1.74,0,3.18-1.45,3.18-3.181V141.16c0-9.95-0.48-23.55,11.24-23.55
	c11.58,0,9.97,13.98,9.97,23.55v45.609c0,1.621,1.33,3.07,2.97,3.181h16.34c1.74,0,3.18-1.45,3.18-3.181V141.16
	c0-4.88-0.2-11.99,1.49-16.34c1.68-4.35,5.79-7.21,9.76-7.21c4.73,0,8.33,1.65,9.55,7.43c0.76,3.44,0.42,12.51,0.42,16.12v45.609
	c0,1.621,1.33,3.07,2.971,3.181h16.34c1.74,0,3.18-1.45,3.18-3.181V132.45c0-9.23,0.93-19.7-4.24-26.94
	c-4.569-6.5-12.039-9.34-18.879-9.34c-9.6,0-18.53,5.06-22.49,15.91C373.24,101.24,366.79,96.17,356.59,96.17z M634.311,96.17
	c-23.61,0-36.7,20.75-36.7,47.52c0,26.589,12.96,47.951,36.7,47.951c22.85,0,37.34-20.871,37.34-47.101
	C671.65,117.43,658.52,96.17,634.311,96.17z M727.45,96.17c-11.28,0-17.72,5.64-22.28,17.4h-0.21v-13.15
	c-0.29-1.33-1.54-2.25-2.97-2.33h-15.07c-1.64,0-3.029,1.19-3.18,2.76v85.929c0,1.621,1.33,3.07,2.97,3.181h16.12
	c1.74,0,3.16-1.44,3.18-3.181v-46.25c0-5.8,0.49-11.09,2.76-16.34c1.83-4.16,5.371-6.79,9.341-6.79c11.26,0,10.18,13.72,10.18,23.13
	v46.68c0.16,1.46,1.479,2.66,2.97,2.761h16.34c1.61,0,2.99-1.221,3.181-2.761v-54.1c0-8.32,0.021-19.87-4.24-26.73
	C741.971,98.94,734.74,96.17,727.45,96.17L727.45,96.17z M531.41,97.66c-1.66,0-2.96,1.32-2.971,3.18v12.31
	c0.011,1.84,1.271,3.17,2.971,3.18h28.01l-32.04,47.311c-1.96,3.049-2.12,6.5-2.12,8.489v12.521c0,1.8,1.961,3.76,3.82,2.76
	c18.26-9.971,40.141-9.08,56.65-0.21c2,1.09,4.029-0.96,4.029-2.761V171.29c-0.16-1.761-0.85-3.45-2.97-4.67
	c-9.37-5.39-20.25-7.04-30.55-6.79l27.79-40.74c2.569-3.66,4.01-5.87,4.03-7.64v-10.61c0-1.83-1.25-3.18-2.971-3.18H531.41z
	 M634.311,113.78c5.17,0,8.99,2.31,10.819,8.27c2.13,6.88,2.33,15.46,2.33,22.7c0,11.029-0.51,29.279-13.149,29.279
	c-12.78,0-12.73-22.589-12.73-33.099C621.58,130.46,622.28,113.78,634.311,113.78z M271.72,145.18v3.61
	c0,6.521,0.23,12.021-2.97,17.819c-2.59,4.721-6.67,7.641-11.24,7.641c-6.25,0-9.97-5.07-9.97-12.311
	C247.54,147.68,259.93,145.18,271.72,145.18z M485.58,145.18v3.61c0,6.521,0.23,12.021-2.97,17.819
	c-2.591,4.721-6.65,7.641-11.24,7.641c-6.25,0-9.97-5.07-9.97-12.311C461.4,147.68,473.78,145.18,485.58,145.18z M591.45,192.71
	v12.31h8.271v-12.31H591.45z M351.5,194.83v87.62h7.64V274.6c1.63,3.11,3.48,5.43,5.73,7c2.24,1.57,4.81,2.33,7.64,2.33
	c5.61,0,10.45-2.869,14.64-8.699c4.19-5.83,6.36-14.291,6.36-25.041c0-7.039-0.9-12.879-2.76-17.819
	c-1.85-4.94-4.33-8.601-7.43-11.03c-3.1-2.42-6.61-3.82-10.4-3.82c-2.7,0-5.23,0.711-7.43,2.121c-2.21,1.409-3.99,3.709-5.73,6.58
	v-31.4h-8.26V194.83z M430,215.41c-5.76,0-10.33,1.699-13.58,5.09c-3.25,3.38-4.88,7.74-4.88,13.15c0,3.14,0.71,5.8,1.91,8.27
	c1.2,2.471,2.93,4.471,5.09,5.939c2.17,1.471,6.511,3.4,12.94,5.521c4.449,1.431,7.109,2.649,8.27,3.61
	c1.68,1.39,2.551,3.22,2.551,5.73c0,2.909-1.011,5.329-2.971,7.209c-1.96,1.891-4.689,2.76-8.27,2.76s-6.53-1-8.7-3.18
	c-2.171-2.18-3.33-5.49-3.82-9.97l-8.271,1.7c1.871,13.609,8.66,20.369,20.371,20.369c6.25,0,11.029-1.77,14.64-5.52
	s5.521-8.79,5.521-14.85c0-3.27-0.58-6.11-1.701-8.49c-1.119-2.37-2.66-4.141-4.67-5.52c-2.02-1.371-6.51-3.201-13.369-5.521
	c-4.98-1.74-7.9-3.021-8.91-3.819c-1.69-1.341-2.551-3.171-2.551-5.521c0-2.38,0.791-4.41,2.551-5.94c1.76-1.52,4.47-2.33,8.06-2.33
	c6.33,0,9.86,3.471,10.61,10.4l8.06-1.27c-0.56-4.381-1.51-7.83-2.97-10.181c-1.46-2.35-3.62-4.33-6.359-5.729
	C436.79,215.93,433.63,215.41,430,215.41z M480.7,215.41c-6.63,0-12.229,2.74-16.55,8.49s-6.36,14.09-6.36,25.039
	c0,10.541,2.08,18.801,6.36,24.4c4.279,5.59,9.84,8.27,16.76,8.27c5.5,0,10.07-1.649,13.79-5.09c3.729-3.439,6.43-8.51,7.851-15.279
	l-8.49-1.49c-2.44,8.68-6.94,12.93-13.15,12.939c-3.96,0-7.2-1.689-9.971-5.299c-2.77-3.631-4.329-9-4.67-16.121h36.49v-2.97
	c0-10.71-2.14-18.739-6.359-24.399C492.17,218.24,487.03,215.41,480.7,215.41z M530.99,215.41c-1.98,0-3.721,0.67-5.301,2.119
	c-1.59,1.451-3.399,4.451-5.299,8.91v-9.76h-7.431v63.44h8.271V247.02c0-4.619,0.43-9.049,1.49-13.149
	c0.6-2.351,1.719-4.21,3.18-5.521c1.46-1.31,3.119-1.91,4.88-1.91c1.95,0,3.88,0.781,5.94,2.33l2.76-9.97
	C536.59,216.5,533.76,215.41,530.99,215.41z M632.4,215.41c-6.551,0-11.95,2.76-16.12,8.27s-6.36,13.801-6.36,24.82
	c0,10.939,2.23,19.23,6.36,24.82c4.14,5.59,9.3,8.27,15.7,8.27c5.279,0,9.82-1.96,13.58-5.939c3.77-3.98,6.06-9.83,7-17.4
	l-8.061-1.27c-0.6,5.41-2.01,9.299-4.24,11.879c-2.229,2.57-4.92,3.82-8.06,3.82c-4.011,0-7.41-1.869-9.97-5.729
	c-2.561-3.86-3.82-10.03-3.82-18.67c0-8.36,1.359-14.4,4.029-18.25c2.671-3.841,6.101-5.94,10.181-5.94c2.729,0,5.06,1.061,7,3.18
	c1.96,2.121,3.25,5.48,4.03,9.76l8.06-1.699c-0.97-6.689-3.11-11.721-6.58-15.061C641.66,216.939,637.45,215.41,632.4,215.41z
	 M679.71,215.41c-6.63,0-12.22,2.74-16.55,8.49c-4.32,5.75-6.359,14.09-6.359,25.039c0,10.541,2.079,18.801,6.359,24.4
	c4.29,5.59,9.84,8.27,16.76,8.27c5.49,0,10.061-1.649,13.79-5.09c3.72-3.439,6.42-8.51,7.851-15.279l-8.49-1.49
	c-2.44,8.68-6.74,12.93-12.94,12.939c-3.96,0-7.409-1.689-10.18-5.299c-2.771-3.631-4.33-9-4.67-16.121h36.489v-2.97
	c0-10.71-2.14-18.739-6.359-24.399C691.189,218.24,686.04,215.41,679.71,215.41z M728.721,215.41c-5.761,0-10.33,1.699-13.58,5.09
	c-3.261,3.38-4.881,7.74-4.881,13.15c0,3.14,0.5,5.8,1.7,8.27c1.19,2.471,2.92,4.471,5.091,5.939c2.17,1.471,6.51,3.4,12.939,5.521
	c4.449,1.431,7.33,2.649,8.49,3.61c1.68,1.39,2.55,3.22,2.55,5.73c0,2.909-1.011,5.329-2.97,7.209c-1.961,1.891-4.7,2.76-8.271,2.76
	c-3.59,0-6.53-1-8.7-3.18c-2.16-2.18-3.55-5.49-4.029-9.97l-8.271,1.7c1.87,13.609,8.649,20.369,20.37,20.369
	c6.25,0,11.24-1.77,14.85-5.52c3.61-3.75,5.521-8.79,5.521-14.85c0-3.27-0.58-6.12-1.7-8.49s-2.859-4.141-4.88-5.52
	c-2.011-1.371-6.3-3.201-13.149-5.521c-4.98-1.74-8.121-3.021-9.121-3.819c-1.689-1.341-2.55-3.171-2.55-5.521
	c0-2.38,1-4.42,2.761-5.94c1.76-1.52,4.479-2.33,8.06-2.33c6.319,0,9.86,3.471,10.61,10.4l8.06-1.27
	c-0.56-4.381-1.5-7.83-2.97-10.181c-1.461-2.35-3.62-4.33-6.36-5.729C735.52,215.93,732.35,215.41,728.721,215.41z M539.471,216.68
	l18.459,63.44h7.851l18.46-63.44h-8.49l-10.82,38.83c-1.31,4.7-2.47,8.75-3.18,12.09c-0.9-4.22-1.77-8.64-2.97-12.939l-10.61-37.98
	H539.471z M591.45,216.68v63.44h8.271v-63.44H591.45z M319.46,217.529c-6.57,0-11.85,2.951-16.12,8.701
	c-4.28,5.75-6.58,14.09-6.58,25.039c0,10.541,2.12,18.601,6.36,24.19s9.9,8.49,16.76,8.49c5.44,0,9.89-1.86,13.58-5.3
	c3.68-3.44,6.23-8.51,7.64-15.28l-8.27-1.271c-2.41,8.68-6.79,12.93-12.94,12.94c-3.93,0-7.23-1.69-9.97-5.3
	c-2.74-3.631-4.33-9-4.67-16.12h36.07l0.21-2.97c0-10.711-2.18-18.961-6.36-24.61C330.97,220.359,325.72,217.529,319.46,217.529z
	 M226.32,219.02l14.85,63.44h8.7l9.76-48.8l1.7,10.82l7.85,37.979h8.49l15.06-63.44h-7.85l-8.27,36.701l-2.76,12.309l-2.55-12.309
	l-7.21-36.701h-8.49l-7.64,37.131l-2.55,13.149l-2.97-13.579l-7.64-36.701H226.32z M754.391,219.65v2.97h8.06v21.22h3.18v-21.22
	h8.06v-2.97H754.391z M776.88,219.65v24.189h2.97v-20.58l7,20.58h2.971l7-20.16v20.16H800V219.65h-4.46l-5.729,16.97
	c-0.58,1.7-0.99,2.92-1.271,3.819l-1.271-3.609l-5.729-17.189h-4.66V219.65z M480.49,224.109c4.12,0,7.52,2,10.18,5.94
	c1.83,2.71,3.02,6.81,3.391,12.31h-27.371c0.261-5.569,1.83-9.869,4.461-13.149C473.78,225.91,476.79,224.109,480.49,224.109z
	 M679.5,224.109c4.11,0,7.52,2,10.18,5.94c1.83,2.71,3.021,6.81,3.391,12.31H665.7c0.26-5.569,1.83-9.869,4.46-13.149
	C672.78,225.91,675.79,224.109,679.5,224.109z M319.46,226.439c4.07,0,7.34,2,9.97,5.94c1.81,2.71,3.02,6.81,3.39,12.31h-26.94
	c0.26-5.569,1.64-10.08,4.24-13.369C312.72,228.04,315.79,226.439,319.46,226.439z M372.08,226.439c3.68,0,6.81,2.041,9.34,5.94
	c2.53,3.899,3.61,9.92,3.61,18.25c0,8.12-1.2,14.17-3.82,18.25s-5.74,6.149-9.12,6.149c-2.48,0-4.75-0.84-6.79-2.549
	c-2.05-1.711-3.55-4.17-4.67-7.431c-1.11-3.271-1.7-8.29-1.7-14.85c0-7.729,1.38-13.53,4.03-17.61
	C365.61,228.51,368.7,226.439,372.08,226.439z"/>
<path fill="#F7A80D" d="M107.4,159.189l-31.61,13.58l29.28,12.521l33.95-12.521L107.4,159.189z M59.88,176.16l-1.06,61.1
	l46.25,20.37v-63.44L59.88,176.16z M154.93,176.16l-41.8,15.91v59.83l41.8-16.971V176.16z M204.79-13.94L172.97-0.36l29.49,12.52
	l33.95-12.52L204.79-13.94z M160.66,4.1v61.1l39.46,11.46l1.27-55.59L160.66,4.1z M248.92,7.49L211.58,23.4v60.04l37.34-16.97V7.49z
	 M55.32,72.06L23.71,85.64l29.28,12.52l33.95-12.52L55.32,72.06z M7.79,89.03l-1.06,61.1l46.25,20.37v-63.43L7.79,89.03z
	 M102.84,89.03l-41.8,15.91v59.83l41.8-16.97V89.03z M157.16,69.8l-31.61,13.58l29.28,12.52l33.95-12.52L157.16,69.8z M109.63,86.78
	l-1.06,61.1l46.25,20.37v-63.44L109.63,86.78z M204.68,86.78l-41.8,15.91v59.83l41.8-16.97V86.78z M304.26-13.94L272.65-0.36
	l29.28,12.52l33.95-12.52L304.26-13.94z M256.73,3.04l-1.06,61.1l46.25,20.37V21.07L256.73,3.04z M351.78,3.04l-41.8,15.91v59.83
	l41.8-16.97V3.04z"/>
</svg>
